<svg width="1084" height="1084" viewBox="0 0 1084 1084" fill="none" xmlns="http://www.w3.org/2000/svg">
<g clip-path="url(#clip0)">
<rect width="1084" height="1084" rx="542" fill="white"/>
<path d="M640.585 1087.13L701.567 865.438C701.567 865.438 866.16 709.44 856.562 584.67C856.245 580.541 856.562 580.224 856.562 580.224L854.451 548.906C854.314 546.872 853.573 544.926 852.323 543.316C851.073 541.706 849.37 540.506 847.434 539.87C845.498 539.234 843.416 539.19 841.454 539.745C839.493 540.299 837.742 541.427 836.426 542.983L803.839 581.494L792.105 597.283C792.105 597.283 763.184 632.312 709.825 616.432L692.674 613.891C692.674 613.891 649.796 634.535 591.99 601.504C591.99 601.504 612.318 625.642 562.77 576.095C513.222 526.548 446.524 449.051 446.524 449.051C436.166 437.97 443.423 407.047 458.562 406.125C492.924 404.035 532.094 394.838 543.109 382.534C547.309 377.814 550.478 372.27 552.414 366.256C554.536 359.738 555.176 352.829 554.286 346.032C553.397 339.236 551 332.724 547.272 326.972C543.544 321.22 538.578 316.374 532.737 312.786C526.896 309.199 520.328 306.962 513.512 306.238C473.573 302.042 408.61 298.802 390.033 305.938C388.273 306.623 386.549 307.396 384.868 308.255C373.557 314.082 363.928 322.71 356.898 333.316C349.868 343.921 345.672 356.15 344.71 368.838C339.488 432.68 332.625 572.653 364.14 647.237L403.328 739.982L282 1084.27L640.585 1087.13Z" fill="#222222"/>
<path d="M803.662 447.522C802.098 447.522 800.536 447.603 798.981 447.763C792.197 448.443 785.656 450.658 779.855 454.24C774.054 457.822 769.144 462.678 765.498 468.439L715.498 547.01C712.103 552.339 710.121 558.443 709.737 564.75C709.354 571.056 710.582 577.356 713.306 583.056C716.03 588.756 720.16 593.67 725.307 597.333C730.454 600.996 736.449 603.289 742.728 603.995L743.707 604.102C749.564 604.697 755.48 603.891 760.965 601.751C766.45 599.61 771.348 596.197 775.254 591.791L836.97 522.361C844.483 514.045 848.591 503.206 848.478 491.999C848.365 480.792 844.038 470.038 836.359 461.875C836.06 461.557 835.761 461.244 835.462 460.937C831.332 456.682 826.388 453.302 820.925 450.997C815.462 448.693 809.591 447.511 803.662 447.522V447.522Z" fill="#222222"/>
<path d="M730.141 364.26C722.241 364.26 714.47 366.261 707.551 370.075C700.632 373.889 694.792 379.392 690.573 386.072L616.846 503.063C612.879 509.288 610.463 516.373 609.799 523.725C609.136 531.076 610.245 538.48 613.034 545.314C615.714 552.109 619.983 558.162 625.485 562.966C630.987 567.77 637.56 571.185 644.654 572.924C645.148 573.044 645.647 573.165 646.153 573.281C654.973 575.264 664.181 574.619 672.638 571.425C681.096 568.231 688.431 562.628 693.738 555.309C715.19 525.94 754.073 471.506 773.461 436.915C778.004 428.973 780.069 419.853 779.391 410.728C778.714 401.604 775.324 392.89 769.657 385.705V385.705C767.371 382.822 764.916 380.075 762.307 377.48C753.756 368.991 742.19 364.237 730.141 364.26V364.26Z" fill="#222222"/>
<path d="M638.03 297.843C627.341 297.932 616.962 301.441 608.412 307.855C599.861 314.27 593.589 323.253 590.514 333.49C576.294 380.919 546.386 431.066 529.823 456.736C527.076 461.01 525.224 465.797 524.377 470.806C523.531 475.816 523.708 480.946 524.898 485.885C526.014 490.624 528.091 495.082 531.001 498.985C533.911 502.888 537.592 506.151 541.815 508.572C542.404 508.91 542.998 509.235 543.598 509.546C566.081 521.234 594.31 513.021 607.866 490.847L679.723 373.304C683.838 366.631 686.316 359.078 686.954 351.264C687.592 343.45 686.371 335.596 683.392 328.344C680.609 321.308 676.201 315.032 670.528 310.026C664.854 305.021 658.077 301.43 650.75 299.545C649.783 299.295 648.814 299.069 647.844 298.865C644.617 298.185 641.328 297.842 638.03 297.843Z" fill="#222222"/>
<path d="M475.798 284.318C482.346 284.958 489.74 285.409 497.536 285.884C525.29 287.574 556.486 289.475 565.673 301.26L567.488 296.572C569.928 289.528 570.668 282.006 569.647 274.621C568.627 267.237 565.874 260.198 561.614 254.08C557.578 248.114 552.187 243.188 545.883 239.704C539.578 236.221 532.539 234.279 525.34 234.037C524.39 234.004 523.443 233.994 522.501 234.003C498.409 234.258 478.135 253.584 476.344 278.001C476.195 280.038 476.015 282.118 475.798 284.318Z" fill="#222222"/>
<path d="M532.235 415.457C531.702 415.462 531.181 415.617 530.732 415.906V415.906C509.487 429.055 474.659 431.865 455.79 432.368C454.995 432.388 454.221 432.635 453.561 433.079C452.901 433.523 452.381 434.147 452.063 434.876C451.738 435.575 451.623 436.354 451.731 437.118C451.84 437.881 452.168 438.597 452.675 439.178C460.886 448.76 480.086 460.079 498.004 462.436C512.953 464.375 527.482 436.334 534.811 419.426C535.065 418.877 535.13 418.259 534.997 417.669C534.864 417.079 534.54 416.549 534.076 416.161C533.566 415.715 532.913 415.465 532.235 415.457V415.457Z" fill="#222222"/>
</g>
<defs>
<clipPath id="clip0">
<rect width="1084" height="1084" rx="542" fill="white"/>
</clipPath>
</defs>
</svg>
